<svg xmlns="http://www.w3.org/2000/svg" width="256" height="256" viewBox="0 0 100 100"><rect width="100" height="100" rx="20" fill="#ffffff"></rect><path d="M19.55 28.91L19.55 66.29L34.19 66.29L34.19 70.73L14.09 70.73L14.09 28.91L19.55 28.91ZM68.81 28.91L74.57 28.91L58.79 70.73L52.49 70.73L36.71 28.91L42.53 28.91L55.67 64.97L68.81 28.91ZM82.31 71.09Q80.75 71.09 79.67 70.01Q78.59 68.93 78.59 67.37L78.59 67.37Q78.59 65.81 79.67 64.73Q80.75 63.65 82.31 63.65L82.31 63.65Q83.81 63.65 84.86 64.73Q85.91 65.81 85.91 67.37L85.91 67.37Q85.91 68.93 84.86 70.01Q83.81 71.09 82.31 71.09L82.31 71.09Z" fill="#222222"></path></svg>