<?xml version="1.0" encoding="UTF-8"?> <svg xmlns="http://www.w3.org/2000/svg" id="Layer_1" data-name="Layer 1" viewBox="0 0 497.85 363.29"><defs><style> .cls-1, .cls-2 { stroke-width: 0px; } .cls-2 { fill: #7a2421; } </style></defs><polygon class="cls-1" points="141.68 164.36 0 164.36 0 164.37 25.67 201.85 71.72 201.85 71.72 329.67 113.22 269.07 116.07 205.05 141.68 201.85 141.68 227.49 146.56 220.35 146.56 220.36 184.9 164.36 141.68 164.36"></polygon><polygon class="cls-1" points="71.72 345.77 71.72 363.29 113.22 363.29 113.22 285.17 71.72 345.77"></polygon><polygon class="cls-2" points="347.13 138.38 347.01 138.29 274.88 32.95 274.91 32.91 274.9 32.89 274.8 32.84 252.32 0 72.88 262.07 72.87 262.07 29.87 324.88 29.87 324.88 3.57 363.29 48.7 363.29 66.2 337.72 66.2 337.72 252.31 65.91 312.63 155.18 357.83 155.18 347.13 138.38"></polygon><path class="cls-1" d="M285.97,211.03h-2.16l-34.55,55.82h-.59l-58.36-94.29-45.38,66.28h0l-3.26,4.76v119.69h41.49v-93.11c0-10.28-2.96-46.86-2.96-46.86l.89-.3s18.08,32.65,23.12,40.81l40.9,66.21h7.71l40.9-66.21c5.04-8.16,22.82-40.81,22.82-40.81l.89.3s-2.67,36.58-2.67,46.86v93.11h41.49v-152.32l-70.29.06h.01Z"></path><polygon class="cls-1" points="497.35 165.1 497.35 165.1 497.85 164.37 497.85 164.36 356.26 164.36 312.91 164.36 312.69 164.36 289.44 201.93 302.13 201.92 302.13 201.92 356.26 201.87 356.26 201.85 384.63 201.85 384.63 363.29 426.13 363.29 426.13 201.85 472.18 201.85 497.35 165.1"></polygon></svg> 